<svg width="40" height="40" viewBox="0 0 40 40" fill="none" xmlns="http://www.w3.org/2000/svg">
<path d="M30.0002 33.3333C30.0002 30.6811 28.9466 28.1375 27.0712 26.2622C25.1959 24.3868 22.6523 23.3333 20.0002 23.3333M20.0002 23.3333C17.348 23.3333 14.8045 24.3868 12.9291 26.2622C11.0537 28.1375 10.0002 30.6811 10.0002 33.3333M20.0002 23.3333C23.6821 23.3333 26.6668 20.3485 26.6668 16.6666C26.6668 12.9847 23.6821 9.99992 20.0002 9.99992C16.3183 9.99992 13.3335 12.9847 13.3335 16.6666C13.3335 20.3485 16.3183 23.3333 20.0002 23.3333ZM36.6668 19.9999C36.6668 29.2047 29.2049 36.6666 20.0002 36.6666C10.7954 36.6666 3.3335 29.2047 3.3335 19.9999C3.3335 10.7952 10.7954 3.33325 20.0002 3.33325C29.2049 3.33325 36.6668 10.7952 36.6668 19.9999Z" stroke="#18181B" stroke-width="2.5" stroke-linecap="round" stroke-linejoin="round"/>
</svg>
